<?xml version="1.0" encoding="UTF-8"?>
<svg version="1.1" xmlns="http://www.w3.org/2000/svg" width="203" height="200">
<path d="M0 0 C66.99 0 133.98 0 203 0 C203 66 203 132 203 200 C136.01 200 69.02 200 0 200 C0 134 0 68 0 0 Z " fill="#FBFBFC" transform="translate(0,0)"/>
<path d="M0 0 C0.99 0 1.98 0 3 0 C3.495 6.93 3.495 6.93 4 14 C6.31 14 8.62 14 11 14 C11.495 7.565 11.495 7.565 12 1 C15.63 1.33 19.26 1.66 23 2 C22.5359375 3.5778125 22.5359375 3.5778125 22.0625 5.1875 C21.24314906 8.12752396 20.54516069 11.00161623 20 14 C22.97 14.495 22.97 14.495 26 15 C26.99 12.03 27.98 9.06 29 6 C33.21912747 6.4794463 35.79663178 7.16625119 39 10 C38.71125 10.54269531 38.4225 11.08539063 38.125 11.64453125 C37.568125 12.71767578 37.568125 12.71767578 37 13.8125 C36.443125 14.87404297 36.443125 14.87404297 35.875 15.95703125 C34.80314642 18.08920729 34.80314642 18.08920729 35 21 C37.37233611 20.96219702 37.37233611 20.96219702 40 20 C42.33414647 17.04150073 42.33414647 17.04150073 44 14 C46.96175123 14.61277612 48.38058783 15.25372522 51 17 C50.59658469 19.90459025 50.22814394 21.69885 48.4375 24.0625 C46.60276872 26.13330995 46.60276872 26.13330995 47 30 C51.37859255 29.49477778 53.81651224 26.82172778 57 24 C59.0625 25.75 59.0625 25.75 61 28 C61 30.0625 61 30.0625 60 32 C57.9375 33.75 57.9375 33.75 56 35 C56.495 36.98 56.495 36.98 57 39 C59.86724686 38.42655063 60.8614515 38.1385485 63 36 C63.99 36 64.98 36 66 36 C67.4606285 38.64738916 68 39.89448334 68 43 C67.21625 43.268125 66.4325 43.53625 65.625 43.8125 C62.71885077 44.84814432 62.71885077 44.84814432 61 48 C64.5219721 48.08004482 67.61981469 48.04005702 71 47 C72.35439668 49.70879335 72.06501451 52.00933268 72 55 C68.535 55.495 68.535 55.495 65 56 C65 57.32 65 58.64 65 60 C69.455 59.505 69.455 59.505 74 59 C74 61.31 74 63.62 74 66 C73.030625 66.268125 72.06125 66.53625 71.0625 66.8125 C69.5465625 67.4003125 69.5465625 67.4003125 68 68 C67.67 68.99 67.34 69.98 67 71 C68.134375 70.814375 69.26875 70.62875 70.4375 70.4375 C72.2009375 70.2209375 72.2009375 70.2209375 74 70 C75 71 75 71 75.09765625 72.84765625 C75.06510417 74.8984375 75.03255208 76.94921875 75 79 C72.36 78.67 69.72 78.34 67 78 C67 78.99 67 79.98 67 81 C68.98 81 70.96 81 73 81 C73.79953138 84.28696233 74.09658936 85.71023192 73 89 C70.36 88.67 67.72 88.34 65 88 C67.05233685 90.2477975 68.00667261 91.0022242 71 92 C70.67 94.31 70.34 96.62 70 99 C67.69 98.34 65.38 97.68 63 97 C63.75150023 100.27773504 63.75150023 100.27773504 67 102 C66.67 103.65 66.34 105.3 66 107 C62.79604584 107 60.90600261 106.25664978 58 105 C58.680625 105.721875 59.36125 106.44375 60.0625 107.1875 C62 110 62 110 61.75 112.8125 C61.37875 113.8953125 61.37875 113.8953125 61 115 C58.39417629 115.93065133 57.35801776 116.14917407 54.75 115.0625 C54.1725 114.711875 53.595 114.36125 53 114 C53.7734375 114.86625 53.7734375 114.86625 54.5625 115.75 C56 118 56 118 55.875 120.1875 C55.58625 120.785625 55.2975 121.38375 55 122 C53.515 122.495 53.515 122.495 52 123 C50.515 122.01 50.515 122.01 49 121 C49.33 122.65 49.66 124.3 50 126 C48.35 126.99 46.7 127.98 45 129 C44.01 128.01 43.02 127.02 42 126 C42.495 128.475 42.495 128.475 43 131 C41.35 131.66 39.7 132.32 38 133 C37.34 131.68 36.68 130.36 36 129 C35.34 129 34.68 129 34 129 C34.66 130.98 35.32 132.96 36 135 C34.35 135.66 32.7 136.32 31 137 C30.34 136.01 29.68 135.02 29 134 C28.34 135.65 27.68 137.3 27 139 C25.68 139 24.36 139 23 139 C22.67 137.68 22.34 136.36 22 135 C21.34 135 20.68 135 20 135 C20.185625 135.804375 20.37125 136.60875 20.5625 137.4375 C20.706875 138.283125 20.85125 139.12875 21 140 C20 141 20 141 17.27734375 141.09765625 C15.62412109 141.08025391 15.62412109 141.08025391 13.9375 141.0625 C12.83277344 141.05347656 11.72804688 141.04445312 10.58984375 141.03515625 C9.30787109 141.01775391 9.30787109 141.01775391 8 141 C7.67 140.01 7.34 139.02 7 138 C6.67 138.99 6.34 139.98 6 141 C4.02 141 2.04 141 0 141 C0 139.68 0 138.36 0 137 C-0.66 137 -1.32 137 -2 137 C-2.33 138.32 -2.66 139.64 -3 141 C-4.65 141 -6.3 141 -8 141 C-8.495 138.525 -8.495 138.525 -9 136 C-9.66 137.32 -10.32 138.64 -11 140 C-12.32 139.67 -13.64 139.34 -15 139 C-14.505 136.03 -14.505 136.03 -14 133 C-14.66 133 -15.32 133 -16 133 C-16.33 134.32 -16.66 135.64 -17 137 C-18.65 136.67 -20.3 136.34 -22 136 C-22 135.01 -22 134.02 -22 133 C-22.61875 133.350625 -23.2375 133.70125 -23.875 134.0625 C-24.57625 134.371875 -25.2775 134.68125 -26 135 C-26.66 134.67 -27.32 134.34 -28 134 C-28 132.68 -28 131.36 -28 130 C-28.61875 130.185625 -29.2375 130.37125 -29.875 130.5625 C-32 131 -32 131 -34 130 C-33.37736802 124.37622724 -30.28994527 121.56672141 -26.6171875 117.5 C-24.73054511 115.12154463 -24.73054511 115.12154463 -25.1484375 112.33203125 C-26.24280161 109.33508 -27.4494189 107.91293582 -30 106 C-32.41263295 105.24914894 -32.41263295 105.24914894 -35 106 C-38.3184615 108.41971151 -40.85529436 110.84151287 -43.625 113.875 C-46 116 -46 116 -48.125 116 C-50.15856975 114.91542947 -51.49236293 113.73378263 -53 112 C-52 110 -51 108 -50 106 C-51.98 106.495 -51.98 106.495 -54 107 C-58 100.375 -58 100.375 -58 97 C-57.08476563 96.72285156 -56.16953125 96.44570312 -55.2265625 96.16015625 C-54.03804687 95.79792969 -52.84953125 95.43570313 -51.625 95.0625 C-49.84996094 94.52302734 -49.84996094 94.52302734 -48.0390625 93.97265625 C-45.12073182 93.12423726 -45.12073182 93.12423726 -43 92 C-42.70437633 86.67829506 -42.70437633 86.67829506 -45 82 C-50.03477333 81.58043556 -54.95797958 82.26676185 -59.9609375 82.87890625 C-60.97027344 82.93884766 -60.97027344 82.93884766 -62 83 C-63 82 -63 82 -63.0625 78.9375 C-63.041875 77.968125 -63.02125 76.99875 -63 76 C-61.68 76 -60.36 76 -59 76 C-59 75.34 -59 74.68 -59 74 C-60.32 74 -61.64 74 -63 74 C-63 71.36 -63 68.72 -63 66 C-57.72 66 -52.44 66 -47 66 C-45.5216774 63.04335481 -45.93967217 60.25770263 -46 57 C-47.26457031 56.81824219 -47.26457031 56.81824219 -48.5546875 56.6328125 C-49.65039062 56.46523437 -50.74609375 56.29765625 -51.875 56.125 C-52.96554688 55.96257812 -54.05609375 55.80015625 -55.1796875 55.6328125 C-58 55 -58 55 -60 53 C-59.625 49.875 -59.625 49.875 -59 47 C-57.02 46.505 -57.02 46.505 -55 46 C-55.33 43.69 -55.66 41.38 -56 39 C-53.9375 38.1875 -53.9375 38.1875 -51 38 C-49.28515625 39.08203125 -49.28515625 39.08203125 -47.5 40.5 C-44.7210787 42.76581199 -44.7210787 42.76581199 -41.125 42.875 C-39.05288462 42.18108974 -39.05288462 42.18108974 -38 41 C-37.69857084 37.66042692 -37.69857084 37.66042692 -39 34 C-41.77785636 31.59357076 -44.78768873 29.77163833 -48 28 C-46.75 25.5 -46.75 25.5 -45 23 C-43.68 23 -42.36 23 -41 23 C-40.67 21.02 -40.34 19.04 -40 17 C-39.01 17 -38.02 17 -37 17 C-35.39453125 18.96875 -35.39453125 18.96875 -33.8125 21.5 C-33.28269531 22.3353125 -32.75289062 23.170625 -32.20703125 24.03125 C-31.80871094 24.6809375 -31.41039063 25.330625 -31 26 C-27.18186553 25.72459296 -27.18186553 25.72459296 -24 24 C-23.58253392 21.12635209 -23.58253392 21.12635209 -24 18 C-25.31266518 16.64631404 -26.64567325 15.31200404 -28 14 C-28.25 11.25 -28.25 11.25 -28 9 C-27.05125 8.71125 -26.1025 8.4225 -25.125 8.125 C-21.94788422 7.23174891 -21.94788422 7.23174891 -20 5 C-19.01 5 -18.02 5 -17 5 C-16.80083984 5.93972656 -16.80083984 5.93972656 -16.59765625 6.8984375 C-16.42105469 7.71570312 -16.24445313 8.53296875 -16.0625 9.375 C-15.88847656 10.18710937 -15.71445313 10.99921875 -15.53515625 11.8359375 C-15.07669307 14.029463 -15.07669307 14.029463 -14 16 C-11.36 16 -8.72 16 -6 16 C-6.18464366 11.65815798 -6.18464366 11.65815798 -8 8 C-8.04080783 6.00041636 -8.04254356 3.99954746 -8 2 C-3.25 1 -3.25 1 -1 1 C-0.67 0.67 -0.34 0.34 0 0 Z " fill="#030303" transform="translate(94,28)"/>
<path d="M0 0 C6.40328236 4.24259658 10.88729625 9.54738908 13 17 C14.16309994 26.39060201 13.95625088 35.17880649 8 43 C2.53574205 49.14135078 -3.8978246 53.32056458 -12.109375 54.4140625 C-21.06701421 54.81358162 -27.58204766 52.96560227 -34.2890625 46.9453125 C-41.02904869 39.86219974 -43.10985687 34.33956398 -43.5 24.625 C-43.29468649 16.35497196 -41.50914989 10.83054866 -35.91015625 4.71875 C-25.40006808 -5.1984614 -12.782846 -7.26445042 0 0 Z " fill="#F8F8F8" transform="translate(115,74)"/>
<path d="M0 0 C0.66 0.33 1.32 0.66 2 1 C4.09048049 1.58794764 5.82365547 2 8 2 C8.33 1.34 8.66 0.68 9 0 C9.66 0.33 10.32 0.66 11 1 C10.67 1.99 10.34 2.98 10 4 C10.45375 3.505 10.9075 3.01 11.375 2.5 C13 1 13 1 15 1 C15.33 1.66 15.66 2.32 16 3 C16.66 2.01 17.32 1.02 18 0 C18.66 0.33 19.32 0.66 20 1 C19.67 1.99 19.34 2.98 19 4 C19.66 3.34 20.32 2.68 21 2 C22.33599921 2.32248257 23.66893378 2.65772583 25 3 C27.68149993 2.61432869 27.68149993 2.61432869 30 2 C30.495 3.98 30.495 3.98 31 6 C26.99679847 6.95377184 23.27788253 7.1157616 19.16796875 7.09765625 C17.87568359 7.09443359 16.58339844 7.09121094 15.25195312 7.08789062 C13.89713474 7.07953665 12.54231703 7.07107172 11.1875 7.0625 C9.81315265 7.05748 8.43880355 7.05291797 7.06445312 7.04882812 C3.70959076 7.03705668 0.35481779 7.02061283 -3 7 C-2.38722388 4.03824877 -1.74627478 2.61941217 0 0 Z " fill="#54C0EF" transform="translate(129,181)"/>
<path d="M0 0 C1.32 0.33 2.64 0.66 4 1 C3.67 1.66 3.34 2.32 3 3 C2.77141886 5.0374763 2.58975722 7.08040303 2.4375 9.125 C2.35371094 10.22070312 2.26992187 11.31640625 2.18359375 12.4453125 C2.12300781 13.28835937 2.06242187 14.13140625 2 15 C1.34 15 0.68 15 0 15 C-1.625 12.5 -1.625 12.5 -3 10 C-3.33 12.31 -3.66 14.62 -4 17 C-4.66 17 -5.32 17 -6 17 C-7.7265625 14.6640625 -7.7265625 14.6640625 -9.625 11.625 C-10.25664063 10.62726562 -10.88828125 9.62953125 -11.5390625 8.6015625 C-13 6 -13 6 -13 4 C-10.03 3.34 -7.06 2.68 -4 2 C-2.68 4.31 -1.36 6.62 0 9 C0 6.03 0 3.06 0 0 Z " fill="#D0D0D0" transform="translate(83,10)"/>
<path d="M0 0 C2.64 0 5.28 0 8 0 C10 2 10 2 10.25 4.5 C10 7 10 7 8 9 C5.375 9.125 5.375 9.125 3 9 C3 11.31 3 13.62 3 16 C2.01 16 1.02 16 0 16 C0 10.72 0 5.44 0 0 Z " fill="#2F2F2F" transform="translate(79,91)"/>
<path d="M0 0 C0.99 0 1.98 0 3 0 C4.32 3.3 5.64 6.6 7 10 C7.185625 8.72125 7.37125 7.4425 7.5625 6.125 C7.66691406 5.40570313 7.77132812 4.68640625 7.87890625 3.9453125 C8.1684297 1.91859333 8.1684297 1.91859333 7 0 C8.32 0 9.64 0 11 0 C11.64690922 1.6037331 12.29248764 3.20800306 12.9375 4.8125 C13.29714844 5.70582031 13.65679687 6.59914063 14.02734375 7.51953125 C16.08104197 12.7568741 16.08104197 12.7568741 15 16 C14.34 16 13.68 16 13 16 C12.34 13.36 11.68 10.72 11 8 C10.34 8 9.68 8 9 8 C8.855625 8.94875 8.71125 9.8975 8.5625 10.875 C8 14 8 14 7 16 C6.34 16 5.68 16 5 16 C3.35 10.72 1.7 5.44 0 0 Z " fill="#313131" transform="translate(92,91)"/>
<path d="M0 0 C0.66 0.33 1.32 0.66 2 1 C-0.64 4.3 -3.28 7.6 -6 11 C-10 10 -10 10 -12 8 C-11.67028521 4.70285207 -11.3773161 3.3773161 -9 1 C-6.5625 0.875 -6.5625 0.875 -4 1 C-3.01 1 -2.02 1 -1 1 C-0.67 0.67 -0.34 0.34 0 0 Z " fill="#DFDFDF" transform="translate(163,33)"/>
<path d="M0 0 C2.64 0 5.28 0 8 0 C8.75 2.25 8.75 2.25 9 5 C6.83642572 8.11554696 5.46100241 8.89361483 1.75 9.75 C0.38875 9.87375 0.38875 9.87375 -1 10 C-0.125 5.25 -0.125 5.25 1 3 C0.34 3 -0.32 3 -1 3 C-0.67 2.01 -0.34 1.02 0 0 Z " fill="#5AC3EF" transform="translate(117,179)"/>
<path d="M0 0 C-0.37047118 2.74148672 -0.68587944 4.58593199 -2.375 6.8125 C-4 8 -4 8 -7 8 C-7.33 8.99 -7.66 9.98 -8 11 C-6.68 11.33 -5.36 11.66 -4 12 C-5.98 12 -7.96 12 -10 12 C-10.39397781 8.55269416 -10.1644697 7.24386886 -8.1875 4.3125 C-5.46690056 1.43643774 -4.04301034 0 0 0 Z " fill="#6FCAF1" transform="translate(48,178)"/>
<path d="M0 0 C0.556875 0.185625 1.11375 0.37125 1.6875 0.5625 C4.399133 1.07551165 6.34371039 0.6640724 9 0 C9.33 0.66 9.66 1.32 10 2 C10.99 3.485 10.99 3.485 12 5 C11.35933594 4.98839844 10.71867187 4.97679687 10.05859375 4.96484375 C4.91346778 4.91116881 0.06975076 5.11830422 -5 6 C-3.35 4.02 -1.7 2.04 0 0 Z " fill="#4EBEEE" transform="translate(49,183)"/>
<path d="M0 0 C4.62 0 9.24 0 14 0 C14 0.66 14 1.32 14 2 C12.35 2 10.7 2 9 2 C9.33 2.33 9.66 2.66 10 3 C9.94921875 4.8125 9.94921875 4.8125 9.6875 7 C9.56955078 8.0828125 9.56955078 8.0828125 9.44921875 9.1875 C9.30097656 9.785625 9.15273437 10.38375 9 11 C8.01 11.495 8.01 11.495 7 12 C6.49384702 10.73160474 5.99530901 9.46016898 5.5 8.1875 C5.2215625 7.47980469 4.943125 6.77210937 4.65625 6.04296875 C4 4 4 4 4 1 C2.68 1.33 1.36 1.66 0 2 C0 1.34 0 0.68 0 0 Z " fill="#E6E6E6" transform="translate(91,90)"/>
<path d="M0 0 C1.32 0.33 2.64 0.66 4 1 C3.67 1.66 3.34 2.32 3 3 C2.77141886 5.0374763 2.58975722 7.08040303 2.4375 9.125 C2.35371094 10.22070312 2.26992187 11.31640625 2.18359375 12.4453125 C2.12300781 13.28835937 2.06242187 14.13140625 2 15 C1.34 15 0.68 15 0 15 C-1.625 12.5 -1.625 12.5 -3 10 C-3.66 10.66 -4.32 11.32 -5 12 C-5.144375 10.906875 -5.28875 9.81375 -5.4375 8.6875 C-5.88288104 5.06877013 -5.88288104 5.06877013 -7 2 C-6.01 2 -5.02 2 -4 2 C-2.68 4.31 -1.36 6.62 0 9 C0 6.03 0 3.06 0 0 Z " fill="#313131" transform="translate(83,10)"/>
<path d="M0 0 C0.66 0 1.32 0 2 0 C1.34 1.98 0.68 3.96 0 6 C1.65 4.35 3.3 2.7 5 1 C4.41196203 4.02419525 3.77321882 7.01758453 3 10 C0.69 10 -1.62 10 -4 10 C-4.33 9.01 -4.66 8.02 -5 7 C-2 2 -2 2 0 0 Z " fill="#58C2EF" transform="translate(102,178)"/>
<path d="M0 0 C0.99 0.33 1.98 0.66 3 1 C1.52307692 5.67692308 1.52307692 5.67692308 -1.125 7.3125 C-1.74375 7.539375 -2.3625 7.76625 -3 8 C-2.34 6.68 -1.68 5.36 -1 4 C-3.50037734 6.17424117 -4.43628586 7.73045798 -5 11 C-3.02 10.34 -1.04 9.68 1 9 C-0.75 11.0625 -0.75 11.0625 -3 13 C-5.25 12.75 -5.25 12.75 -7 12 C-6.76269713 5.94877685 -6.76269713 5.94877685 -4.703125 3.38671875 C-3.125 2 -3.125 2 0 0 Z " fill="#44BBED" transform="translate(89,178)"/>
<path d="M0 0 C2 3 2 3 2 5 C4.31 4.34 6.62 3.68 9 3 C8.67 3.99 8.34 4.98 8 6 C7.01 6.33 6.02 6.66 5 7 C5.66 7.33 6.32 7.66 7 8 C7 8.66 7 9.32 7 10 C2.428721 9.45144652 -1.67435795 8.58255197 -6 7 C-6 6.34 -6 5.68 -6 5 C-3.69 5.33 -1.38 5.66 1 6 C1 5.34 1 4.68 1 4 C0.34 4 -0.32 4 -1 4 C-0.67 2.68 -0.34 1.36 0 0 Z " fill="#464646" transform="translate(19,69)"/>
<path d="M0 0 C0.99 0 1.98 0 3 0 C3 5.28 3 10.56 3 16 C2.01 16 1.02 16 0 16 C0 10.72 0 5.44 0 0 Z " fill="#333333" transform="translate(116,91)"/>
<path d="M0 0 C3.78099386 0.3911373 5.59391036 2.1642515 8 5 C8 5.66 8 6.32 8 7 C7.01 7 6.02 7 5 7 C4.67 6.34 4.34 5.68 4 5 C3.34 5 2.68 5 2 5 C2 5.99 2 6.98 2 8 C2.99 8.33 3.98 8.66 5 9 C4.01 9.33 3.02 9.66 2 10 C1.34 9.67 0.68 9.34 0 9 C0 8.01 0 7.02 0 6 C-0.66 6 -1.32 6 -2 6 C-1.125 1.125 -1.125 1.125 0 0 Z " fill="#828282" transform="translate(43,35)"/>
<path d="M0 0 C2.625 0.375 2.625 0.375 5 1 C4.67 1.99 4.34 2.98 4 4 C2.35 3.67 0.7 3.34 -1 3 C-1 4.32 -1 5.64 -1 7 C2.96 7 6.92 7 11 7 C11 7.66 11 8.32 11 9 C6.71 9 2.42 9 -2 9 C-2.125 5.625 -2.125 5.625 -2 2 C-1.34 1.34 -0.68 0.68 0 0 Z " fill="#393939" transform="translate(11,96)"/>
<path d="M0 0 C2.0625 0.4375 2.0625 0.4375 4 1 C4.33 2.32 4.66 3.64 5 5 C4.34 5 3.68 5 3 5 C3 4.01 3 3.02 3 2 C2.34 2 1.68 2 1 2 C1 3.98 1 5.96 1 8 C-0.875 8.625 -0.875 8.625 -3 9 C-3.66 8.34 -4.32 7.68 -5 7 C-5 5.68 -5 4.36 -5 3 C-4.34 3 -3.68 3 -3 3 C-3 4.32 -3 5.64 -3 7 C-2.34 7 -1.68 7 -1 7 C-1.020625 6.030625 -1.04125 5.06125 -1.0625 4.0625 C-1 1 -1 1 0 0 Z " fill="#626262" transform="translate(173,54)"/>
<path d="M0 0 C0.66 0 1.32 0 2 0 C0.125 4.75 0.125 4.75 -1 7 C-0.34 7.33 0.32 7.66 1 8 C-1.89234315 8.82638376 -3.88742431 9 -7 9 C-7.66 8.34 -8.32 7.68 -9 7 C-8.34 6.01 -7.68 5.02 -7 4 C-5.68 4 -4.36 4 -3 4 C-1.36323743 2.0399719 -1.36323743 2.0399719 0 0 Z " fill="#46BBED" transform="translate(76,179)"/>
<path d="M0 0 C0.8353125 0.2784375 0.8353125 0.2784375 1.6875 0.5625 C4.399133 1.07551165 6.34371039 0.6640724 9 0 C9.33 1.32 9.66 2.64 10 4 C5.74433453 5.16063604 2.3164922 4.76173392 -2 4 C-1.34 2.68 -0.68 1.36 0 0 Z " fill="#3BB7EC" transform="translate(150,183)"/>
<path d="M0 0 C0 0.99 0 1.98 0 3 C1.98 2.67 3.96 2.34 6 2 C6 3.65 6 5.3 6 7 C5.67 6.01 5.34 5.02 5 4 C1.04 4 -2.92 4 -7 4 C-7 2.68 -7 1.36 -7 0 C-4.3333581 -1.33332095 -2.83319697 -0.67102033 0 0 Z " fill="#848484" transform="translate(17,99)"/>
<path d="M0 0 C1.23556641 0.01740234 1.23556641 0.01740234 2.49609375 0.03515625 C3.32238281 0.04417969 4.14867187 0.05320312 5 0.0625 C5.63808594 0.07410156 6.27617187 0.08570312 6.93359375 0.09765625 C6.93359375 2.40765625 6.93359375 4.71765625 6.93359375 7.09765625 C5.61359375 7.42765625 4.29359375 7.75765625 2.93359375 8.09765625 C2.93359375 7.43765625 2.93359375 6.77765625 2.93359375 6.09765625 C3.59359375 6.09765625 4.25359375 6.09765625 4.93359375 6.09765625 C4.93359375 4.77765625 4.93359375 3.45765625 4.93359375 2.09765625 C2.95359375 2.42765625 0.97359375 2.75765625 -1.06640625 3.09765625 C-0.73640625 4.41765625 -0.40640625 5.73765625 -0.06640625 7.09765625 C-1.05640625 6.76765625 -2.04640625 6.43765625 -3.06640625 6.09765625 C-3.10912725 4.4315372 -3.10704457 2.7638274 -3.06640625 1.09765625 C-2.06640625 0.09765625 -2.06640625 0.09765625 0 0 Z " fill="#515151" transform="translate(17.06640625,83.90234375)"/>
<path d="M0 0 C0.99 0 1.98 0 3 0 C3 0.66 3 1.32 3 2 C4.32 2.33 5.64 2.66 7 3 C6.01 5.97 5.02 8.94 4 12 C3.34 11.67 2.68 11.34 2 11 C3.875 5.25 3.875 5.25 5 3 C3.68 3 2.36 3 1 3 C0.34 4.98 -0.32 6.96 -1 9 C-1.66 8.67 -2.32 8.34 -3 8 C-2.690625 7.236875 -2.38125 6.47375 -2.0625 5.6875 C-1.32106407 3.81210323 -0.63771783 1.91315348 0 0 Z " fill="#373737" transform="translate(143,25)"/>
<path d="M0 0 C0.99 0 1.98 0 3 0 C3.67413211 1.91405367 4.3390332 3.83136026 5 5.75 C5.37125 6.81734375 5.7425 7.8846875 6.125 8.984375 C7 12 7 12 7 16 C6.34 16 5.68 16 5 16 C3.35 10.72 1.7 5.44 0 0 Z " fill="#212121" transform="translate(92,91)"/>
<path d="M0 0 C3.04187752 1.61599743 4.27109748 4.16041363 6 7.0625 C5.01 7.3925 4.02 7.7225 3 8.0625 C2.34 6.0825 1.68 4.1025 1 2.0625 C0.01 2.3925 -0.98 2.7225 -2 3.0625 C-0.60240095 6.60768884 -0.60240095 6.60768884 1 10.0625 C-2.82946843 8.60994301 -4.12050295 6.63354439 -6 3.0625 C-2.66321244 0.08322539 -2.66321244 0.08322539 0 0 Z " fill="#343434" transform="translate(56,26.9375)"/>
<path d="M0 0 C0.66 0 1.32 0 2 0 C2.33 1.32 2.66 2.64 3 4 C0.69 3.67 -1.62 3.34 -4 3 C-3.28436734 5.0162233 -3.28436734 5.0162233 -2 7 C0.05000871 7.80528889 0.05000871 7.80528889 2 8 C1 9 1 9 -1.5 9.125 C-4 9 -4 9 -5 8 C-5.04080783 6.00041636 -5.04254356 3.99954746 -5 2 C-4.34 1.67 -3.68 1.34 -3 1 C-2.34 1.33 -1.68 1.66 -1 2 C-0.67 1.34 -0.34 0.68 0 0 Z " fill="#444444" transform="translate(117,15)"/>
<path d="M0 0 C0.66 0.33 1.32 0.66 2 1 C2.680625 1.12375 3.36125 1.2475 4.0625 1.375 C4.701875 1.58125 5.34125 1.7875 6 2 C6.33 2.99 6.66 3.98 7 5 C5.34385343 5.38218767 3.67542976 5.71395102 2 6 C1.67 5.67 1.34 5.34 1 5 C0.67 5.66 0.34 6.32 0 7 C-0.99 7 -1.98 7 -3 7 C-2.38722388 4.03824877 -1.74627478 2.61941217 0 0 Z " fill="#6AC9F1" transform="translate(129,181)"/>
<path d="M0 0 C0.78375 0.04125 1.5675 0.0825 2.375 0.125 C1.2303125 1.0221875 1.2303125 1.0221875 0.0625 1.9375 C-2.54360045 3.9410239 -2.54360045 3.9410239 -4.1875 5.875 C-5.625 7.125 -5.625 7.125 -9.625 7.125 C-9.295 5.805 -8.965 4.485 -8.625 3.125 C-8.00625 3.00125 -7.3875 2.8775 -6.75 2.75 C-3.73158194 1.86222998 -3.29239416 0.15678067 0 0 Z " fill="#E9F7FC" transform="translate(49.625,181.875)"/>
<path d="M0 0 C0.99 0 1.98 0 3 0 C3.99 2.31 4.98 4.62 6 7 C5.01 7.33 4.02 7.66 3 8 C0.9375 5.6875 0.9375 5.6875 -1 3 C-0.67 2.01 -0.34 1.02 0 0 Z " fill="#E1E1E1" transform="translate(54,29)"/>
<path d="M0 0 C1.98 0 3.96 0 6 0 C6 0.66 6 1.32 6 2 C5.01 2.66 4.02 3.32 3 4 C2.74969023 6.58380177 2.74969023 6.58380177 3 9 C1.68 8.67 0.36 8.34 -1 8 C-0.67 5.36 -0.34 2.72 0 0 Z " fill="#565656" transform="translate(102,14)"/>
<path d="M0 0 C0.33 0.66 0.66 1.32 1 2 C3.64 1.67 6.28 1.34 9 1 C9.625 2.875 9.625 2.875 10 5 C9.34 5.66 8.68 6.32 8 7 C7.01 6.67 6.02 6.34 5 6 C5.99 5.01 6.98 4.02 8 3 C5.69 3.33 3.38 3.66 1 4 C0.67 2.68 0.34 1.36 0 0 Z " fill="#525252" transform="translate(27,53)"/>
<path d="M0 0 C1.32 0 2.64 0 4 0 C2.25 5.75 2.25 5.75 0 8 C-0.66 7.67 -1.32 7.34 -2 7 C-1.125 2.25 -1.125 2.25 0 0 Z " fill="#DFDFDF" transform="translate(144,28)"/>
<path d="M0 0 C0.99 0.33 1.98 0.66 3 1 C1.35 4.96 -0.3 8.92 -2 13 C-2.99 12.67 -3.98 12.34 -5 12 C-4.72285156 11.46890625 -4.44570312 10.9378125 -4.16015625 10.390625 C-3.79792969 9.68421875 -3.43570313 8.9778125 -3.0625 8.25 C-2.52302734 7.20585937 -2.52302734 7.20585937 -1.97265625 6.140625 C-1.04441818 4.09775567 -0.46833422 2.18884624 0 0 Z " fill="#2C2C2C" transform="translate(136,16)"/>
<path d="M0 0 C-1.28419041 1.67243402 -2.57757185 3.33781447 -3.875 5 C-4.59429687 5.928125 -5.31359375 6.85625 -6.0546875 7.8125 C-6.69664062 8.534375 -7.33859375 9.25625 -8 10 C-8.66 10 -9.32 10 -10 10 C-9.71125 9.443125 -9.4225 8.88625 -9.125 8.3125 C-7.93379271 5.99191422 -7.93379271 5.99191422 -7.125 3.375 C-6 1 -6 1 -4 -0.375 C-2 -1 -2 -1 0 0 Z " fill="#2D2D2D" transform="translate(165,34)"/>
<path d="M0 0 C0.99 0.33 1.98 0.66 3 1 C2.01 2.485 2.01 2.485 1 4 C1.99 4 2.98 4 4 4 C4.66 2.68 5.32 1.36 6 0 C6.99 0 7.98 0 9 0 C9 0.66 9 1.32 9 2 C6.75 4.1875 6.75 4.1875 4 6 C1.6875 5.75 1.6875 5.75 0 5 C0 3.35 0 1.7 0 0 Z " fill="#4D4D4D" transform="translate(180,105)"/>
<path d="M0 0 C0.33 0.66 0.66 1.32 1 2 C2.32 2 3.64 2 5 2 C5 3.65 5 5.3 5 7 C4.01 7 3.02 7 2 7 C1.67 5.68 1.34 4.36 1 3 C0.01 3.33 -0.98 3.66 -2 4 C-2.33 3.01 -2.66 2.02 -3 1 C-2.01 0.67 -1.02 0.34 0 0 Z " fill="#41B9ED" transform="translate(62,181)"/>
<path d="M0 0 C0.94875 0.04125 1.8975 0.0825 2.875 0.125 C2.545 1.775 2.215 3.425 1.875 5.125 C2.535 5.455 3.195 5.785 3.875 6.125 C2.885 6.455 1.895 6.785 0.875 7.125 C0.875 5.145 0.875 3.165 0.875 1.125 C-2.29166667 2.95833333 -2.29166667 2.95833333 -4.125 6.125 C-4.75 4.25 -4.75 4.25 -5.125 2.125 C-3.125 0.125 -3.125 0.125 0 0 Z " fill="#343434" transform="translate(185.125,92.875)"/>
<path d="M0 0 C1.32 0.33 2.64 0.66 4 1 C4 2.65 4 4.3 4 6 C2.68 6.33 1.36 6.66 0 7 C0 4.69 0 2.38 0 0 Z " fill="#F7F7F7" transform="translate(82,92)"/>
<path d="M0 0 C-2 3 -2 3 -5.125 3.6875 C-6.07375 3.790625 -7.0225 3.89375 -8 4 C-8 4.66 -8 5.32 -8 6 C-8.66 6 -9.32 6 -10 6 C-10 4.68 -10 3.36 -10 2 C-3.375 -1.125 -3.375 -1.125 0 0 Z " fill="#424242" transform="translate(184,65)"/>
<path d="M0 0 C0.99 0 1.98 0 3 0 C2.67 1.65 2.34 3.3 2 5 C0.35 5.33 -1.3 5.66 -3 6 C-1.125 1.125 -1.125 1.125 0 0 Z " fill="#EEF9FD" transform="translate(121,181)"/>
<path d="M0 0 C0.89674777 2.51089376 1.13172674 3.64535109 0.1875 6.1875 C-1 8 -1 8 -3 9 C-3.99 8.67 -4.98 8.34 -6 8 C-4.768606 4.30581799 -2.79208646 2.64890254 0 0 Z " fill="#3DB8ED" transform="translate(106,179)"/>
<path d="M0 0 C0.66 0 1.32 0 2 0 C3.54296875 1.86328125 3.54296875 1.86328125 5.1875 4.3125 C5.73792969 5.11300781 6.28835937 5.91351563 6.85546875 6.73828125 C7.23316406 7.48464844 7.61085938 8.23101562 8 9 C7.67 9.99 7.34 10.98 7 12 C5.82767315 10.3790787 4.6622923 8.75313167 3.5 7.125 C2.8503125 6.22007813 2.200625 5.31515625 1.53125 4.3828125 C0 2 0 2 0 0 Z " fill="#1F1F1F" transform="translate(70,14)"/>
<path d="M0 0 C0.66 0 1.32 0 2 0 C2 1.98 2 3.96 2 6 C0.68 6 -0.64 6 -2 6 C-1.125 1.125 -1.125 1.125 0 0 Z " fill="#E6E6E6" transform="translate(184,94)"/>
<path d="M0 0 C0.99 0 1.98 0 3 0 C3.33 0.99 3.66 1.98 4 3 C5.65948148 4.01187895 7.32580562 5.0126546 9 6 C9 6.66 9 7.32 9 8 C5.56801397 6.76067171 2.69674368 5.49698489 0 3 C0 2.01 0 1.02 0 0 Z " fill="#353535" transform="translate(33,43)"/>
<path d="M0 0 C1.32 0.33 2.64 0.66 4 1 C3.67 1.66 3.34 2.32 3 3 C2.77141886 5.0374763 2.58975722 7.08040303 2.4375 9.125 C2.35371094 10.22070312 2.26992187 11.31640625 2.18359375 12.4453125 C2.12300781 13.28835937 2.06242187 14.13140625 2 15 C1.34 14.67 0.68 14.34 0 14 C0 9.38 0 4.76 0 0 Z " fill="#717171" transform="translate(83,10)"/>
<path d="M0 0 C0.66 0 1.32 0 2 0 C1.34 2.31 0.68 4.62 0 7 C1.32 7.33 2.64 7.66 4 8 C2.02 8 0.04 8 -2 8 C-2.20086443 4.28400809 -2.1519437 3.22791555 0 0 Z " fill="#3AB7EC" transform="translate(40,182)"/>
<path d="M0 0 C0.78375 0.04125 1.5675 0.0825 2.375 0.125 C-0.625 2.125 -0.625 2.125 -2.625 2.125 C-2.625 4.105 -2.625 6.085 -2.625 8.125 C-3.615 7.795 -4.605 7.465 -5.625 7.125 C-4.53409091 0.21590909 -4.53409091 0.21590909 0 0 Z " fill="#393939" transform="translate(156.625,33.875)"/>
<path d="M0 0 C3.78099386 0.3911373 5.59391036 2.1642515 8 5 C8 5.66 8 6.32 8 7 C5 7 5 7 3.3125 5.625 C2 4 2 4 2 2 C1.01 1.67 0.02 1.34 -1 1 C-0.67 0.67 -0.34 0.34 0 0 Z " fill="#3A3A3A" transform="translate(43,35)"/>
<path d="M0 0 C0.99 0 1.98 0 3 0 C3.33 2.97 3.66 5.94 4 9 C3.01 9 2.02 9 1 9 C0.67 6.03 0.34 3.06 0 0 Z " fill="#414141" transform="translate(93,14)"/>
<path d="M0 0 C0.99 0 1.98 0 3 0 C3 1.65 3 3.3 3 5 C1.35 5 -0.3 5 -2 5 C-2 2 -2 2 0 0 Z " fill="#40B9ED" transform="translate(93,183)"/>
<path d="M0 0 C2.64 0 5.28 0 8 0 C8 0.66 8 1.32 8 2 C3.545 2.495 3.545 2.495 -1 3 C-0.67 2.01 -0.34 1.02 0 0 Z " fill="#39B7EC" transform="translate(117,179)"/>
<path d="M0 0 C0 0.66 0 1.32 0 2 C-4.455 3.485 -4.455 3.485 -9 5 C-9 3.68 -9 2.36 -9 1 C-5.94152152 0.45627049 -3.11227195 0 0 0 Z " fill="#424242" transform="translate(188,84)"/>
<path d="M0 0 C0.66 0.66 1.32 1.32 2 2 C1.360625 2.598125 0.72125 3.19625 0.0625 3.8125 C-2.20310389 5.90810337 -2.20310389 5.90810337 -3 9 C-3.66 9 -4.32 9 -5 9 C-4.5206753 4.68607774 -3.2542015 2.83430453 0 0 Z " fill="#383838" transform="translate(166,42)"/>
<path d="M0 0 C1.32 0 2.64 0 4 0 C4.33 1.32 4.66 2.64 5 4 C3.68 4.33 2.36 4.66 1 5 C0.34 3.68 -0.32 2.36 -1 1 C-0.67 0.67 -0.34 0.34 0 0 Z " fill="#4CBDEE" transform="translate(155,183)"/>
<path d="M0 0 C0.99 0 1.98 0 3 0 C3 1.65 3 3.3 3 5 C1.35 4.67 -0.3 4.34 -2 4 C-1.34 2.68 -0.68 1.36 0 0 Z " fill="#56C1EF" transform="translate(108,183)"/>
<path d="M0 0 C0.99 0.33 1.98 0.66 3 1 C1.52307692 5.67692308 1.52307692 5.67692308 -1.125 7.3125 C-2.053125 7.6528125 -2.053125 7.6528125 -3 8 C-2.5359375 7.13375 -2.5359375 7.13375 -2.0625 6.25 C-1.07416636 4.15705816 -0.4831387 2.25464725 0 0 Z " fill="#53C0EF" transform="translate(89,178)"/>
<path d="M0 0 C2.31 0.33 4.62 0.66 7 1 C6.67 1.99 6.34 2.98 6 4 C4.35 3.67 2.7 3.34 1 3 C0.67 2.01 0.34 1.02 0 0 Z " fill="#DFDFDF" transform="translate(159,116)"/>
<path d="M0 0 C0 1.65 0 3.3 0 5 C-1.98 5 -3.96 5 -6 5 C-1.125 0 -1.125 0 0 0 Z " fill="#AFAFAF" transform="translate(190,106)"/>
<path d="M0 0 C0.33 0.99 0.66 1.98 1 3 C-1.64 3.66 -4.28 4.32 -7 5 C-7.33 4.01 -7.66 3.02 -8 2 C-5.36 1.34 -2.72 0.68 0 0 Z " fill="#383838" transform="translate(184,73)"/>
<path d="M0 0 C1.98 0 3.96 0 6 0 C6 0.99 6 1.98 6 3 C4.02 3 2.04 3 0 3 C0 2.01 0 1.02 0 0 Z " fill="#EDEDED" transform="translate(161,106)"/>
<path d="M0 0 C-1.28519565 2.86697492 -2.57129254 4.97607712 -5 7 C-5.66 7 -6.32 7 -7 7 C-7 6.01 -7 5.02 -7 4 C-2.65714286 0 -2.65714286 0 0 0 Z " fill="#353535" transform="translate(171,47)"/>
<path d="M0 0 C1.32 0.66 2.64 1.32 4 2 C4 2.66 4 3.32 4 4 C3.01 4.33 2.02 4.66 1 5 C0.34 4.67 -0.32 4.34 -1 4 C-0.67 2.68 -0.34 1.36 0 0 Z " fill="#41B9ED" transform="translate(33,178)"/>
<path d="M0 0 C0.99 0.33 1.98 0.66 3 1 C3 1.99 3 2.98 3 4 C1.35 4 -0.3 4 -2 4 C-2 3.01 -2 2.02 -2 1 C-1.34 0.67 -0.68 0.34 0 0 Z " fill="#EEEEEE" transform="translate(12,98)"/>
<path d="M0 0 C1.32 0 2.64 0 4 0 C4 1.32 4 2.64 4 4 C3.01 4.33 2.02 4.66 1 5 C0.67 3.35 0.34 1.7 0 0 Z " fill="#A9A9A9" transform="translate(18,86)"/>
<path d="M0 0 C1.98 0.66 3.96 1.32 6 2 C3 4 3 4 -1 4 C-0.67 2.68 -0.34 1.36 0 0 Z " fill="#B8B8B8" transform="translate(29,51)"/>
</svg>
